<?xml version="1.0" encoding="utf-8"?>
<!-- Generator: Adobe Illustrator 17.0.0, SVG Export Plug-In . SVG Version: 6.00 Build 0)  -->
<!DOCTYPE svg PUBLIC "-//W3C//DTD SVG 1.1//EN" "http://www.w3.org/Graphics/SVG/1.1/DTD/svg11.dtd">
<svg version="1.1" id="Layer_1" xmlns="http://www.w3.org/2000/svg" xmlns:xlink="http://www.w3.org/1999/xlink" x="0px" y="0px"
	 width="612px" height="432px" viewBox="0 0 612 432" enable-background="new 0 0 612 432" xml:space="preserve">
<rect fill="#3BC492" width="612" height="432"/>
<g>
	<path fill="#FFFFFF" d="M309.136,306.637c-0.973,0.729-1.944,1.215-3.158,1.215c-1.216,0-2.431-0.486-3.16-1.215l-72.655-72.898
		c-34.748-34.748-36.935-70.711-14.581-92.824c22.113-22.113,58.076-22.113,80.189,0c4.131,4.131,7.532,8.748,10.206,13.608
		c2.673-4.86,6.074-9.477,10.205-13.608c22.113-22.355,58.076-22.355,80.431,0c22.113,22.113,19.926,58.076-14.823,92.824
		L309.136,306.637z"/>
</g>
</svg>
